<svg width="17" height="19" viewBox="0 0 17 19" fill="none" xmlns="http://www.w3.org/2000/svg">
<path fill-rule="evenodd" clip-rule="evenodd" d="M16.7147 13.815C16.7136 13.8608 16.7091 13.9064 16.7014 13.9516C16.7215 14.0553 16.7185 14.1621 16.6925 14.2645C16.6665 14.3669 16.6181 14.4622 16.551 14.5437C16.4838 14.6253 16.3994 14.6909 16.3039 14.736C16.2083 14.7811 16.104 14.8045 15.9984 14.8045H2.6266C2.46982 14.8045 2.31456 14.8354 2.16971 14.8954C2.02486 14.9554 1.89325 15.0433 1.78238 15.1542C1.67152 15.265 1.58357 15.3967 1.52357 15.5415C1.46357 15.6864 1.43269 15.8416 1.43269 15.9984C1.43269 16.1552 1.46357 16.3104 1.52357 16.4553C1.58357 16.6001 1.67152 16.7318 1.78238 16.8426C1.89325 16.9535 2.02486 17.0414 2.16971 17.1014C2.31456 17.1614 2.46982 17.1923 2.6266 17.1923H15.9984C16.1884 17.1923 16.3706 17.2678 16.5049 17.4021C16.6393 17.5365 16.7147 17.7187 16.7147 17.9087C16.7147 18.0986 16.6393 18.2808 16.5049 18.4152C16.3706 18.5495 16.1884 18.625 15.9984 18.625H2.6266C1.92998 18.625 1.2619 18.3483 0.769314 17.8557C0.27673 17.3631 0 16.695 0 15.9984V2.6266C0 1.92998 0.27673 1.2619 0.769314 0.769314C1.2619 0.276731 1.92998 0 2.6266 0H15.4253C16.1378 0 16.7147 0.576897 16.7147 1.28942V13.815ZM5.49199 3.82051C5.302 3.82051 5.11979 3.89598 4.98545 4.03033C4.85111 4.16467 4.77564 4.34687 4.77564 4.53686C4.77564 4.72685 4.85111 4.90905 4.98545 5.04339C5.11979 5.17773 5.302 5.2532 5.49199 5.25321H11.2228C11.4127 5.2532 11.5949 5.17773 11.7293 5.04339C11.8636 4.90905 11.9391 4.72685 11.9391 4.53686C11.9391 4.34687 11.8636 4.16467 11.7293 4.03033C11.5949 3.89598 11.4127 3.82051 11.2228 3.82051H5.49199Z" fill="#545454"/>
</svg>
