<svg width="36" height="14" viewBox="0 0 36 14" fill="none" xmlns="http://www.w3.org/2000/svg">
<path d="M0 13.6848V0.185431H4.34835C5.54129 0.185431 6.6137 0.457396 7.56557 1.00133C8.51745 1.53908 9.25917 2.30243 9.79074 3.2914C10.3285 4.27418 10.6005 5.37749 10.6066 6.60133V7.22253C10.6066 8.45873 10.3439 9.56823 9.81856 10.551C9.29935 11.5276 8.56381 12.2941 7.61193 12.8504C6.66623 13.4005 5.60928 13.6786 4.44107 13.6848H0ZM3.25431 2.69802V11.1815H4.38544C5.31877 11.1815 6.03577 10.8508 6.53643 10.1894C7.0371 9.52187 7.28743 8.5329 7.28743 7.22253V6.63842C7.28743 5.33422 7.0371 4.35144 6.53643 3.69007C6.03577 3.0287 5.30641 2.69802 4.34835 2.69802H3.25431Z" fill="#121212"/>
<path d="M19.2384 10.0967C19.2384 9.62077 19.0685 9.2499 18.7285 8.98412C18.3947 8.71834 17.8044 8.44328 16.9576 8.15895C16.1108 7.87463 15.4186 7.59957 14.8808 7.33379C13.1316 6.47462 12.257 5.29405 12.257 3.79206C12.257 3.04415 12.4733 2.38588 12.906 1.81722C13.3448 1.24239 13.9629 0.797352 14.7603 0.48212C15.5576 0.160707 16.4539 0 17.449 0C18.4195 0 19.2879 0.173069 20.0543 0.519206C20.827 0.865344 21.4265 1.35983 21.853 2.00265C22.2795 2.6393 22.4927 3.36866 22.4927 4.19073H19.2477C19.2477 3.64062 19.0777 3.21413 18.7378 2.91126C18.404 2.60839 17.9497 2.45696 17.3749 2.45696C16.7938 2.45696 16.3334 2.58676 15.9934 2.84636C15.6596 3.09978 15.4927 3.42429 15.4927 3.81987C15.4927 4.16601 15.6782 4.48124 16.049 4.76557C16.4199 5.04372 17.072 5.33422 18.0053 5.63709C18.9387 5.93378 19.7051 6.2552 20.3047 6.60133C21.7634 7.44195 22.4927 8.6009 22.4927 10.0782C22.4927 11.2587 22.0477 12.1859 21.1576 12.8596C20.2676 13.5334 19.0468 13.8702 17.4954 13.8702C16.4013 13.8702 15.4093 13.6755 14.5192 13.2861C13.6353 12.8905 12.9678 12.3528 12.5166 11.6729C12.0715 10.9868 11.849 10.1987 11.849 9.30862H15.1126C15.1126 10.0318 15.298 10.5665 15.6689 10.9126C16.0459 11.2526 16.6548 11.4225 17.4954 11.4225C18.0331 11.4225 18.4565 11.3082 18.7656 11.0795C19.0808 10.8446 19.2384 10.517 19.2384 10.0967Z" fill="#121212"/>
<path d="M35.4358 13.6848H32.2L27.4159 5.28478V13.6848H24.1616V0.185431H27.4159L32.1908 8.58544V0.185431H35.4358V13.6848Z" fill="#121212"/>
</svg>
