<svg width="20" height="19" viewBox="0 0 20 19" fill="none" xmlns="http://www.w3.org/2000/svg">
<path d="M4.95703 0.059371C4.19141 0.223433 3.55469 0.848433 3.375 1.60234C3.32422 1.81718 3.31641 2.5125 3.31641 6.68437C3.31641 10.0242 3.32812 11.5789 3.35938 11.7234C3.47266 12.2703 3.90625 12.8523 4.39062 13.1102C4.89844 13.3758 4.35547 13.3562 11.668 13.3562H18.2812L18.5781 13.2586C19.2578 13.0281 19.7617 12.4969 19.9414 11.8133C19.9844 11.657 19.9961 10.6727 19.9961 6.69609C19.9961 1.31328 20.0039 1.55156 19.7695 1.11406C19.7109 1.00468 19.5508 0.797652 19.4141 0.649215C19.125 0.344527 18.6992 0.110152 18.3008 0.0398397C18.1406 0.00858974 16.043 -0.00312901 11.6406 0.000777245C6.26953 0.000777245 5.16797 0.012496 4.95703 0.059371ZM18.1562 1.81718C18.2227 1.87187 18.2852 1.96953 18.2969 2.03984C18.3086 2.11015 18.3125 3.46562 18.3086 5.05546L18.2969 7.94218L16.9414 6.36406C16.1953 5.49297 15.5234 4.74296 15.4492 4.69218C14.8789 4.30546 14.1016 4.34843 13.6055 4.78984C13.5352 4.84843 12.7812 5.73906 11.9297 6.7664L10.375 8.63359L9.80078 8.06718C9.14844 7.42265 8.91797 7.27812 8.46875 7.23906C8.18359 7.21172 7.80469 7.28984 7.57812 7.42656C7.5 7.46953 6.88672 8.05547 6.21875 8.72343L4.99609 9.93828V6.05156C4.99609 3.50859 5.01172 2.11406 5.03516 2.02031C5.05859 1.94218 5.12109 1.84062 5.17969 1.79375C5.28125 1.71562 5.29297 1.71562 11.6602 1.71562H18.0352L18.1562 1.81718Z" fill="#545454"/>
<path d="M7.14471 2.5398C6.66424 2.63355 6.18768 3.01636 5.96502 3.49292C5.87518 3.69214 5.84393 3.82105 5.8283 4.07105C5.78143 4.7898 6.11736 5.37964 6.74627 5.68823C7.03924 5.83276 7.05096 5.83667 7.49627 5.83667C7.94158 5.83667 7.9533 5.83276 8.24627 5.68823C8.87517 5.37964 9.21111 4.7898 9.16424 4.07105C9.10174 3.05542 8.16033 2.34058 7.14471 2.5398Z" fill="#545454"/>
<path d="M2.05869 5.81714C2.04306 5.84839 1.57822 7.37964 1.02744 9.21558C0.0782175 12.3757 0.02353 12.575 0.00399878 12.9343C-0.00771997 13.2429 0.00399878 13.3601 0.070405 13.5828C0.222749 14.0906 0.605561 14.5359 1.07041 14.7468C1.17978 14.7937 4.1915 15.6218 7.76962 16.5828L14.2735 18.3328H14.7657L15.2579 18.3367L15.5899 18.1726C15.961 17.989 16.2579 17.7078 16.4181 17.3835C16.504 17.2195 17.3009 14.7429 17.3009 14.6492C17.3009 14.6179 15.5196 14.6062 11.3165 14.6062C7.92587 14.6062 5.16806 14.5867 4.95322 14.5671C3.82041 14.4578 2.87509 13.7898 2.40244 12.7625C2.11337 12.1453 2.13291 12.3523 2.10556 8.88354C2.09384 7.16479 2.07431 5.78589 2.05869 5.81714Z" fill="#545454"/>
</svg>
