<svg width="19" height="15" viewBox="0 0 19 15" fill="none" xmlns="http://www.w3.org/2000/svg">
<path d="M4.10044 0.258672C4.02116 0.177782 3.92672 0.113307 3.82251 0.0689298C3.71831 0.0245526 3.60638 0.00114366 3.49312 4.087e-05C3.37986 -0.00106192 3.2675 0.0201628 3.16245 0.0625024C3.0574 0.104842 2.96172 0.167467 2.88088 0.246798C1.96671 1.15612 1.24151 2.23735 0.747078 3.42819C0.252643 4.61904 -0.0012578 5.89595 4.9084e-06 7.18536C-0.00133692 8.52426 0.272449 9.84917 0.804379 11.0779C1.33631 12.3066 2.11504 13.4129 3.09225 14.3282C3.25675 14.4802 3.47403 14.5622 3.69796 14.5566C3.9219 14.5511 4.13486 14.4585 4.29163 14.2985C4.66688 13.9232 4.62056 13.3259 4.25956 12.9804C3.47522 12.2329 2.85106 11.3337 2.42502 10.3375C1.99898 9.34128 1.77995 8.26884 1.78125 7.18536C1.78125 4.99323 2.66119 3.00536 4.08856 1.55898C4.43294 1.20867 4.46856 0.626797 4.10044 0.258672ZM6.19163 2.35223C6.03523 2.19131 5.82142 2.09895 5.59705 2.09539C5.37268 2.09183 5.15605 2.17736 4.99463 2.33323C4.35197 2.96719 3.84188 3.72268 3.49407 4.5557C3.14627 5.38873 2.96769 6.28264 2.96875 7.18536C2.96875 9.19461 3.83563 11.0008 5.21669 12.25C5.37982 12.3939 5.59205 12.4694 5.80937 12.461C6.0267 12.4526 6.23246 12.3609 6.384 12.2049C6.7735 11.8154 6.70106 11.2027 6.33531 10.8583C5.83413 10.3869 5.43488 9.81775 5.16222 9.18603C4.88956 8.55431 4.74927 7.87341 4.75 7.18536C4.75 5.81973 5.29269 4.57998 6.175 3.67036C6.51463 3.32123 6.57044 2.72986 6.19163 2.35223ZM12.8084 2.35105C12.9648 2.19012 13.1786 2.09776 13.4029 2.0942C13.6273 2.09064 13.8439 2.17617 14.0054 2.33205C14.6482 2.96614 15.1583 3.72182 15.5062 4.55506C15.854 5.38831 16.0325 6.28244 16.0312 7.18536C16.0312 9.19461 15.1644 11.0008 13.7833 12.25C13.6202 12.3939 13.408 12.4694 13.1906 12.461C12.9733 12.4526 12.7675 12.3609 12.616 12.2049C12.2265 11.8154 12.2989 11.2027 12.6647 10.8583C13.1659 10.3869 13.5651 9.81775 13.8378 9.18603C14.1104 8.55431 14.2507 7.87341 14.25 7.18536C14.25 5.81973 13.7073 4.57998 12.825 3.67036C12.4854 3.32123 12.4296 2.72867 12.8084 2.35105ZM14.8996 0.258672C14.9788 0.177782 15.0733 0.113307 15.1775 0.0689298C15.2817 0.0245526 15.3936 0.00114366 15.5069 4.087e-05C15.6201 -0.00106192 15.7325 0.0201628 15.8376 0.0625024C15.9426 0.104842 16.0383 0.167467 16.1191 0.246798C17.0333 1.15612 17.7585 2.23735 18.2529 3.42819C18.7474 4.61904 19.0013 5.89595 19 7.18536C19.0013 8.52426 18.7276 9.84917 18.1956 11.0779C17.6637 12.3066 16.885 13.4129 15.9077 14.3282C15.7433 14.4802 15.526 14.5622 15.302 14.5566C15.0781 14.5511 14.8651 14.4585 14.7084 14.2985C14.3331 13.9232 14.3794 13.3259 14.7416 12.9804C15.5258 12.2328 16.1497 11.3335 16.5755 10.3373C17.0014 9.34114 17.2202 8.26875 17.2187 7.18536C17.2187 4.99323 16.3388 3.00536 14.9114 1.55898C14.5671 1.20867 14.5314 0.626797 14.8996 0.258672ZM9.5 5.40411C9.02758 5.40411 8.57452 5.59177 8.24047 5.92582C7.90642 6.25987 7.71875 6.71294 7.71875 7.18536C7.71875 7.65777 7.90642 8.11084 8.24047 8.44489C8.57452 8.77894 9.02758 8.96661 9.5 8.96661C9.97242 8.96661 10.4255 8.77894 10.7595 8.44489C11.0936 8.11084 11.2812 7.65777 11.2812 7.18536C11.2812 6.71294 11.0936 6.25987 10.7595 5.92582C10.4255 5.59177 9.97242 5.40411 9.5 5.40411Z" fill="#121212"/>
</svg>
