<svg width="74" height="17" viewBox="0 0 74 17" fill="none" xmlns="http://www.w3.org/2000/svg">
<path d="M28.5034 12.8855L28.4964 14H22.2681V3.89232H28.4964V5.00678H23.6365V8.36425H27.5724V9.43638H23.6365V12.8855H28.5034ZM30.8237 7.89166C30.9789 7.71767 31.1435 7.56015 31.3174 7.41908C31.4914 7.27801 31.6748 7.1581 31.8676 7.05935C32.0651 6.9559 32.272 6.87831 32.4883 6.82658C32.7093 6.77015 32.9468 6.74194 33.2007 6.74194C33.591 6.74194 33.9343 6.80777 34.2305 6.93944C34.5315 7.0664 34.7807 7.24979 34.9782 7.48961C35.1804 7.72473 35.3332 8.00922 35.4367 8.34309C35.5401 8.67695 35.5919 9.04609 35.5919 9.45049V14H34.3293V9.45049C34.3293 8.90972 34.2047 8.49121 33.9555 8.19496C33.7109 7.89401 33.3371 7.74354 32.834 7.74354C32.4625 7.74354 32.1145 7.83288 31.79 8.01157C31.4703 8.19026 31.174 8.43243 30.9013 8.73808V14H29.6387V6.8548H30.3934C30.5721 6.8548 30.6826 6.94179 30.725 7.11578L30.8237 7.89166ZM45.2055 8.55469C44.9704 8.23963 44.7164 8.02098 44.4437 7.89871C44.171 7.77175 43.8653 7.70827 43.5267 7.70827C42.8637 7.70827 42.3535 7.94574 41.9961 8.42067C41.6388 8.89561 41.4601 9.57275 41.4601 10.4521C41.4601 10.9176 41.5 11.3173 41.58 11.6512C41.6599 11.9803 41.7775 12.2531 41.9326 12.4694C42.0878 12.681 42.2783 12.8362 42.504 12.9349C42.7297 13.0337 42.986 13.083 43.2728 13.083C43.6866 13.083 44.0463 12.989 44.352 12.8009C44.6624 12.6128 44.9468 12.3471 45.2055 12.0039V8.55469ZM46.461 3.61018V14H45.7133C45.5346 14 45.4218 13.913 45.3748 13.739L45.2619 12.8714C44.9563 13.2382 44.6083 13.5345 44.218 13.7602C43.8277 13.9859 43.3763 14.0987 42.8637 14.0987C42.4546 14.0987 42.0831 14.0212 41.7493 13.866C41.4154 13.7061 41.1309 13.4733 40.8958 13.1677C40.6607 12.862 40.4796 12.4811 40.3527 12.025C40.2257 11.5689 40.1622 11.0446 40.1622 10.4521C40.1622 9.92542 40.2328 9.43638 40.3738 8.98496C40.5149 8.52883 40.7171 8.13383 40.9804 7.79997C41.2438 7.4661 41.5659 7.20512 41.9468 7.01703C42.3323 6.82423 42.765 6.72783 43.2446 6.72783C43.6819 6.72783 44.0558 6.80307 44.3661 6.95354C44.6812 7.09932 44.961 7.30387 45.2055 7.5672V3.61018H46.461ZM49.4879 6.8548V14H48.2324V6.8548H49.4879ZM49.756 4.61178C49.756 4.73404 49.7301 4.84925 49.6784 4.9574C49.6314 5.06085 49.5655 5.1549 49.4809 5.23954C49.401 5.31948 49.3046 5.38296 49.1917 5.42999C49.0835 5.47701 48.9683 5.50052 48.8461 5.50052C48.7238 5.50052 48.6086 5.47701 48.5005 5.42999C48.397 5.38296 48.3053 5.31948 48.2254 5.23954C48.1454 5.1549 48.0819 5.06085 48.0349 4.9574C47.9879 4.84925 47.9644 4.73404 47.9644 4.61178C47.9644 4.48952 47.9879 4.37431 48.0349 4.26616C48.0819 4.1533 48.1454 4.0569 48.2254 3.97696C48.3053 3.89232 48.397 3.82649 48.5005 3.77947C48.6086 3.73244 48.7238 3.70893 48.8461 3.70893C48.9683 3.70893 49.0835 3.73244 49.1917 3.77947C49.3046 3.82649 49.401 3.89232 49.4809 3.97696C49.5655 4.0569 49.6314 4.1533 49.6784 4.26616C49.7301 4.37431 49.756 4.48952 49.756 4.61178ZM52.4608 8.28666C52.6865 7.79761 52.9639 7.41673 53.2931 7.14399C53.6223 6.86655 54.0243 6.72783 54.4992 6.72783C54.6497 6.72783 54.7931 6.74429 54.9295 6.77721C55.0706 6.81012 55.1952 6.86185 55.3033 6.93238L55.2116 7.8705C55.1834 7.98806 55.1129 8.04684 55 8.04684C54.9342 8.04684 54.8378 8.03273 54.7108 8.00452C54.5839 7.9763 54.4405 7.9622 54.2806 7.9622C54.0549 7.9622 53.8527 7.99511 53.674 8.06095C53.5 8.12678 53.3425 8.22553 53.2014 8.35719C53.065 8.48416 52.9404 8.64404 52.8276 8.83683C52.7194 9.02493 52.6207 9.24123 52.5313 9.48575V14H51.2687V6.8548H51.9882C52.1246 6.8548 52.2186 6.88066 52.2703 6.93238C52.3221 6.98411 52.3573 7.07345 52.3761 7.20042L52.4608 8.28666ZM60.6182 9.64799C60.6182 9.35644 60.5758 9.09076 60.4912 8.85094C60.4113 8.60642 60.2914 8.39716 60.1315 8.22318C59.9763 8.04449 59.7858 7.90812 59.5601 7.81407C59.3344 7.71532 59.0781 7.66595 58.7913 7.66595C58.1894 7.66595 57.7121 7.84229 57.3594 8.19496C57.0115 8.54294 56.7952 9.02728 56.7105 9.64799H60.6182ZM61.6339 12.9984C61.4787 13.1865 61.2929 13.3511 61.0766 13.4921C60.8603 13.6285 60.6276 13.7414 60.3783 13.8307C60.1338 13.9201 59.8799 13.9859 59.6166 14.0282C59.3532 14.0752 59.0923 14.0987 58.8336 14.0987C58.3399 14.0987 57.8838 14.0165 57.4652 13.8519C57.0514 13.6826 56.6917 13.4381 56.3861 13.1183C56.0851 12.7939 55.85 12.3942 55.6807 11.9192C55.5114 11.4443 55.4268 10.8988 55.4268 10.2828C55.4268 9.78435 55.502 9.31882 55.6525 8.88621C55.8077 8.45359 56.0287 8.07976 56.3155 7.7647C56.6024 7.44494 56.9527 7.19572 57.3665 7.01703C57.7803 6.83364 58.2458 6.74194 58.7631 6.74194C59.191 6.74194 59.586 6.81483 59.9481 6.9606C60.3149 7.10167 60.6299 7.30857 60.8932 7.58131C61.1613 7.84934 61.3705 8.18321 61.521 8.58291C61.6715 8.9779 61.7467 9.42933 61.7467 9.93718C61.7467 10.1347 61.7256 10.2663 61.6832 10.3322C61.6409 10.398 61.561 10.4309 61.4434 10.4309H56.6682C56.6823 10.8823 56.7434 11.275 56.8516 11.6089C56.9644 11.9427 57.1196 12.2225 57.3171 12.4482C57.5146 12.6692 57.7497 12.8362 58.0225 12.949C58.2952 13.0572 58.6009 13.1113 58.9394 13.1113C59.2545 13.1113 59.5249 13.076 59.7506 13.0055C59.981 12.9302 60.1785 12.8503 60.3431 12.7656C60.5077 12.681 60.644 12.6034 60.7522 12.5329C60.865 12.4576 60.9614 12.42 61.0414 12.42C61.1448 12.42 61.2248 12.46 61.2812 12.5399L61.6339 12.9984ZM67.9795 8.12443C67.9419 8.17615 67.9043 8.21612 67.8666 8.24434C67.829 8.27255 67.7773 8.28666 67.7115 8.28666C67.6409 8.28666 67.5633 8.25844 67.4787 8.20202C67.394 8.14089 67.2882 8.07505 67.1613 8.00452C67.039 7.93398 66.8862 7.8705 66.7028 7.81407C66.5241 7.75294 66.3031 7.72238 66.0398 7.72238C65.6871 7.72238 65.3767 7.78586 65.1087 7.91282C64.8407 8.03508 64.615 8.21377 64.4316 8.44889C64.2529 8.68401 64.1165 8.9685 64.0225 9.30236C63.9331 9.63623 63.8885 10.0101 63.8885 10.4239C63.8885 10.8565 63.9378 11.2421 64.0366 11.5806C64.1353 11.9145 64.274 12.1967 64.4527 12.4271C64.6361 12.6528 64.8548 12.8268 65.1087 12.949C65.3673 13.0666 65.6565 13.1254 65.9763 13.1254C66.2819 13.1254 66.5335 13.0901 66.731 13.0196C66.9285 12.9443 67.0907 12.862 67.2177 12.7727C67.3494 12.6833 67.4575 12.6034 67.5422 12.5329C67.6315 12.4576 67.7185 12.42 67.8032 12.42C67.9066 12.42 67.9865 12.46 68.043 12.5399L68.3956 12.9984C68.2405 13.1912 68.0641 13.3558 67.8666 13.4921C67.6691 13.6285 67.4552 13.7437 67.2248 13.8378C66.9991 13.9271 66.7616 13.9929 66.5124 14.0353C66.2631 14.0776 66.0092 14.0987 65.7506 14.0987C65.3039 14.0987 64.8877 14.0165 64.5021 13.8519C64.1212 13.6873 63.7897 13.4498 63.5076 13.1395C63.2254 12.8244 63.0044 12.4388 62.8445 11.9827C62.6847 11.5266 62.6047 11.007 62.6047 10.4239C62.6047 9.89251 62.6776 9.40111 62.8234 8.94969C62.9739 8.49826 63.1902 8.11032 63.4723 7.78586C63.7591 7.4567 64.1095 7.20042 64.5233 7.01703C64.9418 6.83364 65.4214 6.74194 65.9622 6.74194C66.4653 6.74194 66.9074 6.82423 67.2882 6.98881C67.6738 7.14869 68.0148 7.37676 68.311 7.673L67.9795 8.12443ZM71.6549 14.1129C71.0906 14.1129 70.6557 13.9553 70.35 13.6403C70.0491 13.3252 69.8986 12.8714 69.8986 12.2789V7.90577H69.0381C68.9628 7.90577 68.8994 7.88461 68.8476 7.84229C68.7959 7.79526 68.77 7.72473 68.77 7.63068V7.12988L69.9409 6.98176L70.2301 4.77401C70.2442 4.70348 70.2748 4.64705 70.3218 4.60473C70.3735 4.5577 70.4394 4.53419 70.5193 4.53419H71.1541V6.99587H73.2208V7.90577H71.1541V12.1943C71.1541 12.4953 71.227 12.7186 71.3728 12.8644C71.5186 13.0102 71.7066 13.083 71.9371 13.083C72.0687 13.083 72.1816 13.0666 72.2756 13.0337C72.3744 12.9961 72.459 12.9561 72.5296 12.9138C72.6001 12.8714 72.6589 12.8338 72.7059 12.8009C72.7576 12.7633 72.8023 12.7445 72.8399 12.7445C72.9057 12.7445 72.9645 12.7844 73.0162 12.8644L73.383 13.4639C73.1667 13.6661 72.9057 13.826 72.6001 13.9436C72.2944 14.0564 71.9794 14.1129 71.6549 14.1129Z" fill="#121212"/>
<path d="M4.10044 1.25867C4.02116 1.17778 3.92672 1.11331 3.82251 1.06893C3.71831 1.02455 3.60638 1.00114 3.49312 1.00004C3.37986 0.998938 3.2675 1.02016 3.16245 1.0625C3.0574 1.10484 2.96172 1.16747 2.88088 1.2468C1.96671 2.15612 1.24151 3.23735 0.747078 4.42819C0.252643 5.61904 -0.0012578 6.89595 4.9084e-06 8.18536C-0.00133692 9.52427 0.272449 10.8492 0.804379 12.0779C1.33631 13.3066 2.11504 14.4129 3.09225 15.3282C3.25675 15.4802 3.47403 15.5622 3.69796 15.5566C3.9219 15.5511 4.13486 15.4585 4.29163 15.2985C4.66688 14.9232 4.62056 14.3259 4.25956 13.9804C3.47522 13.2329 2.85106 12.3337 2.42502 11.3375C1.99898 10.3413 1.77995 9.26884 1.78125 8.18536C1.78125 5.99323 2.66119 4.00536 4.08856 2.55898C4.43294 2.20867 4.46857 1.6268 4.10044 1.25867ZM6.19163 3.35223C6.03523 3.19131 5.82142 3.09895 5.59705 3.09539C5.37268 3.09183 5.15605 3.17736 4.99463 3.33323C4.35197 3.96719 3.84188 4.72268 3.49407 5.5557C3.14627 6.38873 2.96769 7.28264 2.96875 8.18536C2.96875 10.1946 3.83563 12.0008 5.21669 13.25C5.37982 13.3939 5.59205 13.4694 5.80937 13.461C6.0267 13.4526 6.23246 13.3609 6.384 13.2049C6.7735 12.8154 6.70106 12.2027 6.33531 11.8583C5.83413 11.3869 5.43488 10.8177 5.16222 10.186C4.88956 9.55431 4.74927 8.87341 4.75 8.18536C4.75 6.81973 5.29269 5.57998 6.175 4.67036C6.51463 4.32123 6.57044 3.72986 6.19163 3.35223ZM12.8084 3.35105C12.9648 3.19012 13.1786 3.09776 13.4029 3.0942C13.6273 3.09064 13.8439 3.17617 14.0054 3.33205C14.6482 3.96614 15.1583 4.72182 15.5062 5.55506C15.854 6.3883 16.0325 7.28244 16.0312 8.18536C16.0312 10.1946 15.1644 12.0008 13.7833 13.25C13.6202 13.3939 13.408 13.4694 13.1906 13.461C12.9733 13.4526 12.7675 13.3609 12.616 13.2049C12.2265 12.8154 12.2989 12.2027 12.6647 11.8583C13.1659 11.3869 13.5651 10.8177 13.8378 10.186C14.1104 9.55431 14.2507 8.87341 14.25 8.18536C14.25 6.81973 13.7073 5.57998 12.825 4.67036C12.4854 4.32123 12.4296 3.72867 12.8084 3.35105ZM14.8996 1.25867C14.9788 1.17778 15.0733 1.11331 15.1775 1.06893C15.2817 1.02455 15.3936 1.00114 15.5069 1.00004C15.6201 0.998938 15.7325 1.02016 15.8376 1.0625C15.9426 1.10484 16.0383 1.16747 16.1191 1.2468C17.0333 2.15612 17.7585 3.23735 18.2529 4.42819C18.7474 5.61904 19.0013 6.89595 19 8.18536C19.0013 9.52427 18.7276 10.8492 18.1956 12.0779C17.6637 13.3066 16.885 14.4129 15.9077 15.3282C15.7433 15.4802 15.526 15.5622 15.302 15.5566C15.0781 15.5511 14.8651 15.4585 14.7084 15.2985C14.3331 14.9232 14.3794 14.3259 14.7416 13.9804C15.5258 13.2328 16.1497 12.3335 16.5755 11.3373C17.0014 10.3411 17.2202 9.26876 17.2187 8.18536C17.2187 5.99323 16.3388 4.00536 14.9114 2.55898C14.5671 2.20867 14.5314 1.6268 14.8996 1.25867ZM9.5 6.40411C9.02758 6.40411 8.57452 6.59177 8.24047 6.92582C7.90642 7.25987 7.71875 7.71294 7.71875 8.18536C7.71875 8.65777 7.90642 9.11084 8.24047 9.44489C8.57452 9.77894 9.02758 9.96661 9.5 9.96661C9.97242 9.96661 10.4255 9.77894 10.7595 9.44489C11.0936 9.11084 11.2812 8.65777 11.2812 8.18536C11.2812 7.71294 11.0936 7.25987 10.7595 6.92582C10.4255 6.59177 9.97242 6.40411 9.5 6.40411Z" fill="#FF0000"/>
</svg>
