<svg width="207" height="307" viewBox="0 0 207 307" fill="none" xmlns="http://www.w3.org/2000/svg">
<g filter="url(#filter0_d_154_7194)">
<path d="M10 290.717V219.623H32.9004C39.1829 219.623 44.8307 221.055 49.8438 223.92C54.8568 226.752 58.763 230.772 61.5625 235.98C64.3945 241.156 65.8268 246.967 65.8594 253.412V256.683C65.8594 263.194 64.4759 269.037 61.709 274.213C58.9746 279.356 55.1009 283.392 50.0879 286.322C45.1074 289.219 39.541 290.684 33.3887 290.717H10ZM27.1387 232.855V277.533H33.0957C38.0111 277.533 41.7871 275.791 44.4238 272.308C47.0605 268.793 48.3789 263.584 48.3789 256.683V253.607C48.3789 246.739 47.0605 241.563 44.4238 238.08C41.7871 234.597 37.946 232.855 32.9004 232.855H27.1387Z" fill="white"/>
<path d="M111.318 271.82C111.318 269.314 110.423 267.36 108.633 265.961C106.875 264.561 103.766 263.112 99.3066 261.615C94.847 260.118 91.2012 258.669 88.3691 257.269C79.1569 252.745 74.5508 246.527 74.5508 238.617C74.5508 234.678 75.6901 231.211 77.9688 228.217C80.2799 225.189 83.5352 222.845 87.7344 221.185C91.9336 219.493 96.6536 218.646 101.895 218.646C107.005 218.646 111.579 219.558 115.615 221.381C119.684 223.204 122.842 225.808 125.088 229.193C127.334 232.546 128.457 236.387 128.457 240.717H111.367C111.367 237.819 110.472 235.573 108.682 233.978C106.924 232.383 104.531 231.586 101.504 231.586C98.444 231.586 96.0189 232.269 94.2285 233.636C92.4707 234.971 91.5918 236.68 91.5918 238.763C91.5918 240.586 92.5684 242.247 94.5215 243.744C96.4746 245.209 99.9089 246.739 104.824 248.334C109.74 249.896 113.776 251.589 116.934 253.412C124.616 257.839 128.457 263.942 128.457 271.722C128.457 277.94 126.113 282.823 121.426 286.371C116.738 289.919 110.309 291.693 102.139 291.693C96.377 291.693 91.1523 290.668 86.4648 288.617C81.8099 286.534 78.2943 283.702 75.918 280.121C73.5742 276.508 72.4023 272.357 72.4023 267.67H89.5898C89.5898 271.478 90.5664 274.294 92.5195 276.117C94.5052 277.907 97.7116 278.802 102.139 278.802C104.971 278.802 107.201 278.2 108.828 276.996C110.488 275.759 111.318 274.034 111.318 271.82Z" fill="white"/>
<path d="M196.621 290.717H179.58L154.385 246.478V290.717H137.246V219.623H154.385L179.531 263.861V219.623H196.621V290.717Z" fill="white"/>
</g>
<path d="M45.9936 162.055C44.9894 157.731 45.1206 150.83 44.2026 146.336C43.5266 143.026 41.6911 140.017 40.5756 136.819C37.6394 128.24 40.7534 118.608 45.3071 111.187C47.7981 107.127 51.3764 103.133 54.9069 99.9554C59.5061 95.8162 64.7074 92.7267 69.9661 89.5262C75.5286 86.1409 81.1304 83.4917 87.5171 82.0347C95.3801 80.2412 103.603 80.7349 111.522 81.9574C113.059 82.1967 118.997 83.2319 120.097 83.0389C122.119 82.6842 128.059 81.1732 129.935 80.3007C133.835 78.4872 137.972 74.4032 142.062 72.4394C144.45 71.2927 147.039 70.2642 149.46 69.1407C150.001 68.8897 151.782 69.0359 152.539 68.8052C156.377 67.6367 160.677 66.1614 164.167 64.1984C164.77 63.8589 165.897 62.3834 166.245 61.8512C168.183 58.8902 168.964 54.4864 168.184 51.0552C167.607 48.5187 165.863 44.7987 164.63 42.5307C159.244 32.6284 155.419 23.9184 162.065 13.3944C165.644 7.72743 171.651 1.89543 178.431 0.209685C179.46 -0.0463154 180.698 -0.131814 181.688 0.325686L181.966 0.705183C181.616 2.23143 179.693 3.04569 178.414 3.67969C179.05 4.18694 179.87 4.69493 180.131 5.40893C179.456 7.08593 174.363 8.20718 172.037 10.8124C166.852 16.6204 165.536 25.8717 168.616 32.8429C173.394 43.6587 184.589 52.4062 180.997 65.2927C185.817 61.2539 187.246 56.4377 189.724 50.8369C190.673 58.3504 187.161 64.1314 183.067 70.2217C188.912 66.7614 194.364 63.1099 197.645 56.9617C198.036 56.2277 198.701 54.6272 199.568 54.8424C200.871 58.2014 191.455 69.8619 188.263 71.8859C186.553 72.9704 184.447 74.9002 182.97 76.3157C180.137 80.4422 183.761 82.0262 177.717 85.2569C179.118 86.0802 180.579 86.6617 181.035 88.2217C180.899 88.9439 180.827 89.2812 180.063 89.7424C175.775 92.3307 173.104 91.0964 171.685 96.5049C170.373 101.505 172.325 107.176 167.529 110.107C164.491 111.964 161.469 111.904 158.662 113.431L158.509 113.512C157.537 114.036 155.92 115.591 155.09 116.42C156.355 117.714 164.557 124.695 157.135 125.355C156.681 125.395 156.203 123.749 155.494 123.883C155.39 124.642 155.917 125.885 155.359 126.278C152.891 128.015 145.562 129.102 144.127 131.879C141.93 136.129 143.536 140.48 140.722 145.098L140.724 145.233C140.809 148.442 142.107 151.209 141.934 154.192C141.476 161.835 137.516 168.86 136.157 176.3C135.73 178.643 136.029 182.523 135.983 184.978C136.113 187.056 133.947 193.511 134.348 195.005C136.134 201.672 144.075 206.834 131.115 206.788C128.229 206.778 120.823 207.834 118.676 205.547C117.527 202.931 120.987 198.171 120.685 196.067C119.649 188.84 120.823 182.774 121.366 175.661C121.875 168.992 119.986 159.282 121.623 152.825C118.685 154.703 117.489 155.367 113.952 155.723C113.342 160.203 113.473 163.126 113.467 167.642C113.459 174.222 115.502 186.739 109.847 191.348C108.467 192.473 104.762 193.652 103.519 195.123C100.225 199.02 102.374 202.676 97.0284 204.8C88.9616 202.819 87.7784 200.123 86.6271 192.326C85.1619 182.404 95.6966 188.581 97.9611 184.702C98.6521 181.985 93.5184 165.697 92.1701 162.134C86.1724 161.624 83.2184 163.029 78.3126 166.158C76.1291 167.551 74.4791 168.288 73.0356 170.611C72.3934 177.082 74.2076 187.201 76.7379 193.354C77.4396 195.06 83.2326 198.424 83.0726 201.408C82.1351 203.183 75.6659 205.841 73.5109 206.564C70.3484 207.733 65.4936 206.526 62.2326 206.372C60.1126 206.272 52.9636 206.951 52.1249 206.091C47.8049 201.661 52.8431 186.941 53.2799 181.715C53.7944 175.56 53.5056 174.159 53.4229 168.479C53.4034 166.85 53.0504 162.41 52.4274 161.005C51.2534 158.356 48.9706 155.287 47.3951 152.761C47.8146 157.197 47.7291 159.879 47.4691 164.262C47.3329 165.312 47.1811 166.361 47.0134 167.406C46.8101 165.803 46.6254 163.475 45.9936 162.055Z" fill="white"/>
<path d="M45.9933 162.055C46.625 163.475 46.8098 165.803 47.013 167.406C47.1808 166.361 47.3325 165.312 47.4688 164.262C47.5845 166.906 48.0325 172.063 48.7138 174.572C47.9383 175.297 48.08 175.383 47.912 176.663C47.5853 173.376 45.9778 164.24 45.9933 162.055Z" fill="white" fill-opacity="0.666667"/>
<path d="M47.9121 176.663C48.0801 175.383 47.9384 175.297 48.7139 174.572C49.3124 178.01 49.4746 179.883 48.7274 183.342C48.2066 180.929 48.1511 179.104 47.9121 176.663Z" fill="white" fill-opacity="0.94902"/>
<defs>
<filter id="filter0_d_154_7194" x="0" y="213.646" width="206.621" height="93.0469" filterUnits="userSpaceOnUse" color-interpolation-filters="sRGB">
<feFlood flood-opacity="0" result="BackgroundImageFix"/>
<feColorMatrix in="SourceAlpha" type="matrix" values="0 0 0 0 0 0 0 0 0 0 0 0 0 0 0 0 0 0 127 0" result="hardAlpha"/>
<feOffset dy="5"/>
<feGaussianBlur stdDeviation="5"/>
<feColorMatrix type="matrix" values="0 0 0 0 0 0 0 0 0 0 0 0 0 0 0 0 0 0 0.25 0"/>
<feBlend mode="normal" in2="BackgroundImageFix" result="effect1_dropShadow_154_7194"/>
<feBlend mode="normal" in="SourceGraphic" in2="effect1_dropShadow_154_7194" result="shape"/>
</filter>
</defs>
</svg>
