<svg width="161" height="208" viewBox="0 0 161 208" fill="none" xmlns="http://www.w3.org/2000/svg">
<path d="M6.56393 162.055C5.55968 157.731 5.69092 150.83 4.77292 146.336C4.09692 143.026 2.26143 140.017 1.14593 136.819C-1.79032 128.24 1.32367 118.608 5.87742 111.187C8.36842 107.127 11.9467 103.133 15.4772 99.9554C20.0764 95.8162 25.2777 92.7267 30.5364 89.5262C36.0989 86.1409 41.7007 83.4917 48.0874 82.0347C55.9504 80.2412 64.1737 80.7349 72.0919 81.9574C73.6297 82.1967 79.5672 83.2319 80.6669 83.0389C82.6897 82.6842 88.6294 81.1732 90.5054 80.3007C94.4049 78.4872 98.5424 74.4032 102.633 72.4394C105.021 71.2927 107.61 70.2642 110.03 69.1407C110.571 68.8897 112.352 69.0359 113.11 68.8052C116.947 67.6367 121.247 66.1614 124.737 64.1984C125.341 63.8589 126.467 62.3834 126.815 61.8512C128.753 58.8902 129.535 54.4864 128.754 51.0552C128.177 48.5187 126.434 44.7987 125.2 42.5307C119.814 32.6284 115.989 23.9184 122.635 13.3944C126.214 7.72743 132.221 1.89543 139.001 0.209685C140.031 -0.0463154 141.268 -0.131814 142.259 0.325686L142.536 0.705183C142.187 2.23143 140.263 3.04569 138.985 3.67969C139.621 4.18694 140.44 4.69493 140.701 5.40893C140.027 7.08593 134.933 8.20718 132.607 10.8124C127.422 16.6204 126.106 25.8717 129.186 32.8429C133.964 43.6587 145.159 52.4062 141.568 65.2927C146.388 61.2539 147.817 56.4377 150.294 50.8369C151.244 58.3504 147.731 64.1314 143.637 70.2217C149.482 66.7614 154.934 63.1099 158.215 56.9617C158.607 56.2277 159.272 54.6272 160.139 54.8424C161.442 58.2014 152.025 69.8619 148.833 71.8859C147.123 72.9704 145.017 74.9002 143.54 76.3157C140.708 80.4422 144.332 82.0262 138.287 85.2569C139.689 86.0802 141.149 86.6617 141.606 88.2217C141.469 88.9439 141.397 89.2812 140.633 89.7424C136.345 92.3307 133.674 91.0964 132.255 96.5049C130.944 101.505 132.895 107.176 128.1 110.107C125.061 111.964 122.039 111.904 119.232 113.431L119.079 113.512C118.107 114.036 116.49 115.591 115.66 116.42C116.926 117.714 125.127 124.695 117.705 125.355C117.251 125.395 116.774 123.749 116.064 123.883C115.961 124.642 116.487 125.885 115.93 126.278C113.461 128.015 106.132 129.102 104.697 131.879C102.5 136.129 104.107 140.48 101.292 145.098L101.295 145.233C101.38 148.442 102.678 151.209 102.504 154.192C102.046 161.835 98.0864 168.86 96.7277 176.3C96.2999 178.643 96.5992 182.523 96.5537 184.978C96.6832 187.056 94.5177 193.511 94.9179 195.005C96.7039 201.672 104.645 206.834 91.6849 206.788C88.7994 206.778 81.3929 207.834 79.2464 205.547C78.0977 202.931 81.5574 198.171 81.2557 196.067C80.2194 188.84 81.3937 182.774 81.9364 175.661C82.4454 168.992 80.5564 159.282 82.1934 152.825C79.2549 154.703 78.0589 155.367 74.5222 155.723C73.9127 160.203 74.0429 163.126 74.0374 167.642C74.0292 174.222 76.0724 186.739 70.4172 191.348C69.0374 192.473 65.3322 193.652 64.0889 195.123C60.7949 199.02 62.9444 202.676 57.5987 204.8C49.5319 202.819 48.3487 200.123 47.1974 192.326C45.7322 182.404 56.2669 188.581 58.5314 184.702C59.2224 181.985 54.0887 165.697 52.7404 162.134C46.7427 161.624 43.7887 163.029 38.8829 166.158C36.6994 167.551 35.0494 168.288 33.6059 170.611C32.9637 177.082 34.7779 187.201 37.3082 193.354C38.0099 195.06 43.8029 198.424 43.6429 201.408C42.7054 203.183 36.2362 205.841 34.0812 206.564C30.9187 207.733 26.0639 206.526 22.8029 206.372C20.6829 206.272 13.5339 206.951 12.6952 206.091C8.37517 201.661 13.4134 186.941 13.8502 181.715C14.3647 175.56 14.0759 174.159 13.9932 168.479C13.9737 166.85 13.6207 162.41 12.9977 161.005C11.8237 158.356 9.54092 155.287 7.96542 152.761C8.38492 157.197 8.29943 159.879 8.03943 164.262C7.90318 165.312 7.75143 166.361 7.58368 167.406C7.38043 165.803 7.19568 163.475 6.56393 162.055Z" fill="white"/>
<path d="M6.56359 162.055C7.19534 163.475 7.38009 165.803 7.58334 167.406C7.75109 166.361 7.90284 165.312 8.03909 164.262C8.15484 166.906 8.60284 172.063 9.28409 174.572C8.50858 175.297 8.65033 175.383 8.48233 176.663C8.15558 173.376 6.54809 164.24 6.56359 162.055Z" fill="white" fill-opacity="0.666667"/>
<path d="M8.48242 176.663C8.65042 175.383 8.50867 175.297 9.28417 174.572C9.88267 178.01 10.0449 179.883 9.29768 183.342C8.77693 180.929 8.72142 179.104 8.48242 176.663Z" fill="white" fill-opacity="0.94902"/>
</svg>
