<svg width="18" height="18" viewBox="0 0 18 18" fill="none" xmlns="http://www.w3.org/2000/svg">
<path d="M16.2929 17.7071C16.6834 18.0976 17.3166 18.0976 17.7071 17.7071C18.0976 17.3166 18.0976 16.6834 17.7071 16.2929L17 17L16.2929 17.7071ZM14.8667 7.93333H13.8667C13.8667 11.2102 11.2102 13.8667 7.93333 13.8667V14.8667V15.8667C12.3148 15.8667 15.8667 12.3148 15.8667 7.93333H14.8667ZM7.93333 14.8667V13.8667C4.65644 13.8667 2 11.2102 2 7.93333H1H0C0 12.3148 3.55187 15.8667 7.93333 15.8667V14.8667ZM1 7.93333H2C2 4.65644 4.65644 2 7.93333 2V1V0C3.55187 0 0 3.55187 0 7.93333H1ZM7.93333 1V2C11.2102 2 13.8667 4.65644 13.8667 7.93333H14.8667H15.8667C15.8667 3.55187 12.3148 0 7.93333 0V1ZM17 17L17.7071 16.2929L13.9738 12.5596L13.2667 13.2667L12.5596 13.9738L16.2929 17.7071L17 17Z" fill="#121212"/>
</svg>
